<svg xmlns="http://www.w3.org/2000/svg" width="256" height="256" viewBox="0 0 256 256">
  <defs>
    <linearGradient id="bg" x1="0" y1="0" x2="1" y2="1">
      <stop offset="0" stop-color="#7c3aed"/>
      <stop offset="1" stop-color="#4f46e5"/>
    </linearGradient>
  </defs>
  <rect width="256" height="256" rx="56" fill="url(#bg)"/>
  <rect x="56" y="52" width="144" height="152" rx="14" fill="#ffffff"/>
  <rect x="56" y="52" width="144" height="152" rx="14" fill="none" stroke="#ffffff" stroke-width="10"/>
  <rect x="30" y="36" width="10" height="24" rx="2" fill="#ffffff"/>
  <rect x="30" y="80" width="10" height="24" rx="2" fill="#ffffff"/>
  <rect x="30" y="124" width="10" height="24" rx="2" fill="#ffffff"/>
  <rect x="30" y="168" width="10" height="24" rx="2" fill="#ffffff"/>
  <rect x="216" y="36" width="10" height="24" rx="2" fill="#ffffff"/>
  <rect x="216" y="80" width="10" height="24" rx="2" fill="#ffffff"/>
  <rect x="216" y="124" width="10" height="24" rx="2" fill="#ffffff"/>
  <rect x="216" y="168" width="10" height="24" rx="2" fill="#ffffff"/>
  <polygon points="100,92 168,128 100,164" fill="#4f46e5"/>
</svg>